<svg xmlns="http://www.w3.org/2000/svg" viewBox="0 0 1195 1191">
<circle cx="597.5" cy="582.5" r="539.5" fill="#2A2833"/>
<path d="M345 303 L317 332 L294 362 L262 420 L242 481 L234 543 L237 610 L250 672 L277 736 L312 793 L357 843 L412 883 L475 913 L545 931 L610 933 L669 924 L730 902 L792 866 L845 819 L879 770 L842 801 L793 823 L739 836 L684 840 L624 834 L564 820 L507 796 L455 763 L408 722 L369 674 L338 620 L316 563 L305 504 L304 446 L312 387 Z" fill="#F4F4F6"/>
<path d="M817 316 L783 406 L691 443 L780 477 L817 569 L852 479 L943 443 L852 407 Z" fill="#FFFFFF"/>
<circle cx="960" cy="362" r="11" fill="#8E7BFF"/>
<rect x="925" y="318" width="10" height="28" rx="5" transform="rotate(28 930 332)" fill="#8E7BFF"/>
</svg>